<?xml version="1.0" encoding="UTF-8"?>
<svg clip-rule="evenodd" fill-rule="evenodd" image-rendering="optimizeQuality"
    shape-rendering="geometricPrecision" text-rendering="geometricPrecision" version="1.1"
    viewBox="0 0 420 320" xml:space="preserve" xmlns="http://www.w3.org/2000/svg">
 <defs>
  </defs>
  <rect class="fil0" width="420" height="320"/>
  <path class="fil1" fill="#8B231D" fill-rule='nonzero' d="m55.7 303.47v-35.02h16.69v2.61 2.62h-9.56v9.51h9.05v2.62 2.61h-9.05v15.05h-3.55-3.58zm49.23 0.51c-1.85 0-3.29-0.57-4.34-1.71-1.05-1.15-1.57-2.73-1.57-4.76v-1.49c0-2.89 0.7-4.93 2.12-6.12 1.43-1.19 3.87-1.78 7.35-1.78h1.96v-2.96c0-0.9-0.17-1.58-0.52-2.05-0.33-0.46-0.85-0.68-1.53-0.68-0.85 0-1.48 0.24-1.88 0.73s-0.57 1.23-0.52 2.21v0.72h-6.38v-0.72c-0.03-2.36 0.64-4.09 2.02-5.17 1.37-1.09 3.57-1.64 6.59-1.64 2.91 0 5.08 0.61 6.48 1.82 1.41 1.22 2.11 3.1 2.11 5.65v17.44h-6.18v-2.02l-0.27 0.32c-1.2 1.47-3.02 2.21-5.44 2.21zm5.52-8.7v-3.35h-0.84c-1.52 0-2.6 0.32-3.22 0.97-0.64 0.64-0.95 1.76-0.95 3.35v1.49c0 0.76 0.2 1.35 0.6 1.78 0.4 0.44 0.93 0.65 1.63 0.65 0.92 0 1.62-0.41 2.09-1.23 0.46-0.82 0.69-2.04 0.69-3.66zm43.68-8.89v-0.71c0.05-1.09-0.09-1.9-0.43-2.44s-0.88-0.81-1.61-0.81-1.27 0.19-1.64 0.59c-0.35 0.4-0.53 1-0.53 1.8 0 0.75 0.25 1.38 0.75 1.91 0.49 0.52 1.34 1.03 2.57 1.56 3.08 1.35 5.14 2.55 6.16 3.63 1 1.07 1.5 2.58 1.5 4.51 0 2.52-0.72 4.41-2.17 5.66-1.45 1.26-3.63 1.89-6.55 1.89-3.12 0-5.38-0.61-6.74-1.83-1.33-1.19-2-3.09-2-5.72v-0.27-0.72h6.32v0.71c-0.06 1.47 0.08 2.49 0.44 3.08s1.01 0.89 1.95 0.89c0.84 0 1.47-0.24 1.9-0.72 0.42-0.48 0.63-1.21 0.63-2.18 0-0.89-0.27-1.64-0.82-2.23-0.53-0.58-1.45-1.15-2.76-1.74-3.01-1.3-5.02-2.47-6.02-3.5-0.99-1-1.48-2.39-1.48-4.16 0-2.35 0.71-4.11 2.12-5.27 1.41-1.17 3.52-1.76 6.35-1.76 2.97 0 5.13 0.56 6.47 1.69 1.34 1.12 2.02 2.87 2.02 5.25v0.17 0.72h-6.43zm45.41 17.29c-1.25 0.2-2.67 0.3-4.27 0.3-2.03 0-3.54-0.6-4.56-1.81s-1.54-3.02-1.54-5.42v-13.36h-3.39v-4.32h3.39v-3.91l6.38-2.66v6.57h3.99v4.32h-3.99v13.41c0 1.17 0.12 1.94 0.37 2.31 0.25 0.36 0.78 0.55 1.62 0.55 0.72-0.03 1.39-0.09 2-0.2v4.22zm33.74 0.3c-2.98 0-5.12-0.74-6.44-2.24-1.32-1.48-1.98-3.92-1.98-7.29v-4.81c0-4.06 0.68-6.92 2.02-8.59 1.35-1.66 3.66-2.49 6.94-2.49 3.46 0 5.81 0.72 7.07 2.15 1.26 1.44 1.88 4.16 1.88 8.14v3.54h-11.58v0.75c0 2.83 0.16 4.7 0.51 5.61s1.05 1.37 2.12 1.37c1.02 0 1.72-0.33 2.12-0.98 0.41-0.65 0.57-1.73 0.51-3.24v-0.71h6.32v0.72c0.05 2.68-0.72 4.71-2.3 6.05-1.59 1.35-3.98 2.02-7.19 2.02zm3.17-15.3v-1.36c0-1.89-0.19-3.18-0.55-3.87-0.37-0.69-1.06-1.02-2.08-1.02s-1.71 0.41-2.09 1.23c-0.36 0.83-0.54 2.38-0.54 4.67v0.35h5.26zm33.12 14.79v-24.4h3.18 3.2v2.3c1.38-1.88 3.37-2.81 5.96-2.81 1.84 0 3.2 0.54 4.11 1.6 0.91 1.07 1.36 2.68 1.36 4.83v18.48h-3.17-3.2v-17.75c0-1-0.18-1.72-0.54-2.17s-0.93-0.67-1.73-0.67c-1.08 0-1.83 0.43-2.25 1.27-0.43 0.84-0.61 2.31-0.54 4.38v14.94h-3.17-3.21zm53.19 0.51c-2.98 0-5.12-0.74-6.43-2.24-1.33-1.48-1.99-3.92-1.99-7.29v-4.81c0-4.06 0.68-6.92 2.02-8.59 1.35-1.66 3.66-2.49 6.94-2.49 3.46 0 5.81 0.72 7.07 2.15 1.26 1.44 1.88 4.16 1.88 8.14v3.54h-11.58v0.75c0 2.83 0.17 4.7 0.51 5.61 0.35 0.91 1.05 1.37 2.12 1.37 1.02 0 1.73-0.33 2.12-0.98 0.41-0.65 0.58-1.73 0.51-3.24v-0.71h6.32v0.72c0.05 2.68-0.72 4.71-2.3 6.05-1.58 1.35-3.98 2.02-7.19 2.02zm3.17-15.3v-1.36c0-1.89-0.19-3.18-0.55-3.87-0.37-0.69-1.06-1.02-2.08-1.02s-1.71 0.41-2.09 1.23c-0.36 0.83-0.54 2.38-0.54 4.67v0.35h5.26zm33.23 14.79v-24.4h3.02 3.06v3.15h0.05c0.22-0.45 0.47-0.85 0.74-1.21 1.13-1.46 3.06-2.27 5.77-2.44v5.48c-0.41-0.08-0.87-0.12-1.39-0.1-1.86 0-3.15 0.46-3.88 1.37-0.73 0.9-1.07 2.47-1 4.7v13.45h-3.17-3.2zm48.52-17.08v-0.71c0.05-1.09-0.09-1.9-0.43-2.44-0.35-0.54-0.88-0.81-1.61-0.81s-1.27 0.19-1.64 0.59c-0.35 0.4-0.53 1-0.53 1.8 0 0.75 0.25 1.38 0.74 1.91 0.49 0.52 1.35 1.03 2.57 1.56 3.09 1.35 5.15 2.55 6.17 3.63 1 1.07 1.5 2.58 1.5 4.51 0 2.52-0.73 4.41-2.18 5.66-1.45 1.26-3.62 1.89-6.54 1.89-3.13 0-5.38-0.61-6.74-1.83-1.34-1.19-2-3.09-2-5.72v-0.27-0.72h6.32v0.71c-0.07 1.47 0.08 2.49 0.44 3.08 0.35 0.59 1 0.89 1.95 0.89 0.84 0 1.47-0.24 1.89-0.72 0.43-0.48 0.64-1.21 0.64-2.18 0-0.89-0.27-1.64-0.82-2.23-0.53-0.58-1.45-1.15-2.77-1.74-3.01-1.3-5.01-2.47-6.02-3.5-0.98-1-1.47-2.39-1.47-4.16 0-2.35 0.71-4.11 2.12-5.27 1.4-1.17 3.52-1.76 6.35-1.76 2.97 0 5.13 0.56 6.47 1.69 1.34 1.12 2.01 2.87 2.01 5.25v0.17 0.72h-6.42z" />
  <path class="fil2" fill="#0C54A0" fill-rule='nonzero' d="m157.56 5.82h62.93c17.22 0 30.13 4.11 38.71 12.37 8.57 8.21 12.88 19.96 12.88 35.14 0 15.64-4.67 27.86-14.03 36.66-2.38 2.23-5.07 4.18-8.09 5.85 1.03-7.12-0.11-14.09-2.93-20.2l-0.04-0.1c-0.11-0.24-0.23-0.47-0.34-0.71l-0.02-0.04c-0.11-0.21-0.22-0.43-0.33-0.64l-0.07-0.14-0.33-0.6-0.07-0.14c-0.11-0.2-0.23-0.4-0.35-0.61l-0.07-0.12c-0.11-0.19-0.22-0.38-0.33-0.56l-0.12-0.19c-0.1-0.17-0.21-0.34-0.32-0.52l-0.13-0.2c-0.11-0.16-0.21-0.31-0.32-0.47l-0.16-0.25c-0.11-0.15-0.21-0.3-0.32-0.45l-0.17-0.24c-0.11-0.15-0.22-0.3-0.33-0.45l-0.17-0.23c-0.12-0.15-0.23-0.3-0.35-0.44l-0.17-0.23c-0.12-0.14-0.24-0.29-0.36-0.44l-0.17-0.21c-0.12-0.14-0.25-0.29-0.37-0.43l-0.19-0.23c-0.12-0.13-0.24-0.26-0.36-0.4l-0.22-0.24-0.34-0.36-0.25-0.27-0.34-0.35-0.26-0.25-0.34-0.33-0.29-0.28-0.34-0.32-0.25-0.23-0.4-0.35-0.25-0.21-0.38-0.32-0.3-0.25-0.36-0.29-0.3-0.24-0.37-0.29-0.34-0.25-0.33-0.24-0.38-0.27-0.68-0.46-0.39-0.26-0.72-0.45-0.35-0.21-0.39-0.24-0.36-0.2-0.39-0.22-0.42-0.22-0.34-0.18c-0.15-0.08-0.3-0.15-0.45-0.23l-0.32-0.16c-0.16-0.08-0.32-0.15-0.48-0.23l-0.32-0.15c-0.14-0.06-0.3-0.13-0.45-0.2l-0.36-0.15c-0.15-0.07-0.3-0.13-0.46-0.19l-0.34-0.15-0.48-0.18-0.35-0.13c-0.16-0.06-0.32-0.12-0.48-0.17l-0.36-0.13c-0.15-0.05-0.3-0.1-0.45-0.15-0.14-0.04-0.27-0.09-0.4-0.13-0.15-0.05-0.31-0.09-0.46-0.13-0.13-0.05-0.26-0.09-0.4-0.12-0.13-0.04-0.27-0.08-0.41-0.12-0.16-0.04-0.31-0.08-0.46-0.12l-0.02-0.01c-0.27-0.07-0.55-0.14-0.83-0.2h-0.01c-0.19-0.05-0.39-0.09-0.59-0.13l-0.3-0.07h-0.01c-0.3-0.06-0.59-0.12-0.89-0.17-19.41-3.48-37.95 9.5-41.41 29-0.06 0.29-0.1 0.58-0.14 0.89l-0.04 0.29c-0.03 0.21-0.05 0.41-0.08 0.63l-0.03 0.36c-0.02 0.2-0.04 0.39-0.06 0.59l-0.03 0.41-0.04 0.59-0.02 0.43c-0.01 0.2-0.01 0.4-0.02 0.61l-0.01 0.45c-0.01 0.22-0.01 0.44-0.01 0.66v0.39c0 0.37 0 0.73 0.01 1.11 0.01 0.37 0.02 0.74 0.03 1.12l0.02 0.46 0.03 0.72 0.08 1.2 0.04 0.51 0.06 0.74 0.04 0.48 0.07 0.8 0.05 0.46c0.03 0.29 0.06 0.59 0.1 0.89l0.04 0.4c0.03 0.29 0.07 0.58 0.11 0.87l0.05 0.43 0.07 0.53 0.1 0.77 0.08 0.54 0.12 0.82 0.09 0.58 0.12 0.76 0.1 0.61 0.13 0.8 0.1 0.59 0.14 0.77 0.12 0.68 0.13 0.68 0.13 0.71 0.27 1.38c0.1 0.48 0.2 0.95 0.3 1.43l0.11 0.53 0.19 0.89 0.17 0.77 0.13 0.61 0.2 0.88 0.12 0.53 0.21 0.91 0.14 0.57 0.2 0.84 0.17 0.69 0.18 0.75 0.15 0.59c0.14 0.55 0.27 1.09 0.41 1.64l0.18 0.66 0.17 0.66 0.21 0.79 0.19 0.7 0.22 0.83 0.17 0.58 0.25 0.9 0.18 0.66 0.2 0.7 0.23 0.8 0.16 0.53c0.33 1.13 0.66 2.24 1 3.36l0.1 0.32 0.24 0.76 0.21 0.69 0.23 0.73 0.22 0.68 0.25 0.78 0.19 0.58 0.26 0.79 0.47 1.41 0.21 0.61 0.23 0.68c0.15 0.45 0.31 0.9 0.47 1.35 0.14 0.42 0.29 0.85 0.44 1.27l0.27 0.73 0.22 0.62 0.29 0.81 0.14 0.37 0.32 0.86 0.16 0.44 0.31 0.8 0.17 0.44 0.28 0.75 0.18 0.43 0.31 0.81 0.45 1.11c0.14 0.37 0.29 0.73 0.44 1.08l0.02 0.06 0.21 0.5 0.27 0.64 0.22 0.51 0.24 0.57 0.28 0.64 0.14 0.33 0.31 0.69 0.17 0.38 0.28 0.62 0.21 0.44 0.23 0.51 0.33 0.69 0.12 0.25h-39.82v-154.82z" />
  <path class="fil3" fill="#FEFEFE" d="m231.74 30.92c6.6-0.57 12.41 4.35 12.97 10.98 0.57 6.63-4.33 12.46-10.93 13.03s-12.41-4.35-12.97-10.98 4.33-12.47 10.93-13.03z" />
  <path class="fil4" fill="#7BC7C0" d="m221.8 76.04c5.82-3.64 13.47-1.85 17.09 3.99 3.63 5.85 1.85 13.54-3.97 17.18s-13.47 1.85-17.1-4c-3.62-5.84-1.84-13.53 3.98-17.17zm6.15 25.03c-14.24-5.73-30.42 1.22-36.12 15.54-0.35 0.87-0.67 1.85-0.94 2.92 13.25 6.04 20.47 22.3 16.63 40.29-1.93 9.06-6.36 17.11-12.22 23.26 11.19-4.85 42.42-31.43 48.11-45.72 5.71-14.31-1.22-30.56-15.46-36.29z" />
  <path class="fil2" fill="#0C54A0" fill-rule='nonzero' d="m35.14 285.91c0 4.75 0.39 7.92 1.22 9.5 0.43 0.83 1.67 1.4 3.5 2.14 1.8 0.72 2.6 1.9 2.6 3.09 0 2.25-1.18 3.36-3.5 3.36h-17.81c-1.53 0-2.6-0.2-3.15-0.56-0.55-0.35-0.83-1.3-0.83-2.8 0-0.96 0.79-1.98 2.37-3.09 3.15 0 4.72-3.41 4.72-10.17v-75.11c0-3.56-0.35-6.41-1.06-8.55s-2.4-3.4-5.12-3.8c-2.84-0.47-4.26-1.27-4.26-2.37 0-1.75 1.66-3.6 5.01-5.58 3.39-2.02 5.95-3.01 7.8-3.01 2.68 0 4.49 1.07 5.43 3.16 0.99 2.1 2.01 5.35 3.08 9.7 7.25-8.59 15.36-12.86 24.34-12.86s16.55 3.48 22.69 10.49c5.71 6.53 8.55 14.84 8.55 24.93 0 10.93-2.84 19.51-8.55 25.89-3.11 3.68-6.97 6.57-11.58 8.58-4.57 2.02-9.3 3.05-14.14 3.05-2.96 0-6.46-0.67-10.6-2.02-4.13-1.3-6.22-3.16-6.22-5.58 0-0.79 0.23-1.58 0.71-2.29 0.47-0.72 1.1-1.07 1.89-1.07 1.02 0 2.05 0.35 3.07 0.99 3.47 1.74 7.48 2.61 12.05 2.61 2.96 0 5.91-0.79 8.87-2.41 2.95-1.63 5.36-3.68 7.21-6.18 3.62-5.46 5.43-12.27 5.43-20.38 0-7.92-1.69-14.53-5.12-19.95-3.42-5.38-8.9-8.07-16.39-8.07-6.22 0-11.41 1.99-15.59 5.89-4.4 4.1-6.62 9.7-6.62 16.9v65.57zm123.22-44.19c0 4.75 0.32 7.83 0.91 9.22 0.63 0.95 1.89 1.74 3.78 2.37 2.05 0.64 3.11 1.71 3.11 3.13 0 2.22-1.93 3.32-5.71 3.32h-6.58c-2.48 0-4.02-0.55-4.57-1.62-0.59-1.07-0.87-3.16-0.87-6.21v-3.84c-5.75 9.22-13.86 13.81-24.34 13.81-6.9 0-12.81-1.82-17.73-5.46-4.92-3.68-7.41-8.83-7.41-15.48 0-8.42 4.22-15.39 12.61-20.89 7.13-4.44 16.03-6.65 26.63-6.65l9.02 0.47c-0.35-5.34-2.48-9.65-6.42-12.9-3.9-3.29-8.55-4.91-13.91-4.91-4.33 0-8.74 1.35-13.27 4.08-3.39 1.86-5.48 2.81-6.34 2.81-2.84 0-4.26-1.23-4.26-3.76 0-2.38 1.97-4.47 5.87-6.22 5.44-2.69 11.42-4.03 18-4.03 8.71 0 16.04 2.37 22.03 7.12 6.3 4.83 9.45 12.11 9.45 21.85v23.79zm-17.57-21.65c-4.73 0-9.38 0.67-13.91 1.98-4.57 1.3-8.39 3.48-11.46 6.49-3.07 3-4.61 6.92-4.61 11.71 0 4.08 1.26 7.17 3.78 9.3 3.35 2.85 6.9 4.28 10.64 4.28 6.62 0 12.05-1.9 16.31-5.74 3.78-3.21 5.67-8.43 5.67-15.68v-12.11l-6.42-0.23zm52.28 27.58c0 1.94 0.39 3.21 1.14 3.8 0.79 0.6 1.89 1.15 3.35 1.67 1.73 0.91 2.6 1.93 2.6 3.12 0 2.34-1.66 3.52-4.97 3.52h-15.64c-3.3 0-4.96-1.18-4.96-3.52 0-1.26 0.79-2.21 2.37-2.93 1.53-0.43 2.75-1.03 3.62-1.66 0.91-0.67 1.34-1.98 1.34-4v-35.38c0-5.07-2.05-8.63-6.11-10.73-2.4-0.79-3.58-1.78-3.58-3.08 0-1.35 1.34-3.01 4.06-4.99 3.7-3.01 6.38-4.51 7.99-4.51 2.52 0 4.26 1.74 5.24 5.18 0.99 3.48 1.93 8 2.84 13.62 1.73-4.32 4.49-8.55 8.27-12.67 3.74-4.07 7.56-6.13 11.35-6.13 5.51 0 8.27 3.01 8.27 9.06 0 3.64-1.1 5.46-3.31 5.46-0.79 0-2.21-0.51-4.25-1.54-2.05-1.03-3.63-1.54-4.73-1.54-3.51 0-7.05 3.08-10.64 9.26-2.83 4.47-4.25 9.62-4.25 15.43v22.56zm91.23-5.93c0 4.75 0.32 7.83 0.91 9.22 0.63 0.95 1.89 1.74 3.78 2.37 2.05 0.64 3.11 1.71 3.11 3.13 0 2.22-1.93 3.32-5.71 3.32h-6.58c-2.48 0-4.02-0.55-4.57-1.62-0.59-1.07-0.86-3.16-0.86-6.21v-3.84c-5.75 9.22-13.87 13.81-24.35 13.81-6.89 0-12.8-1.82-17.73-5.46-4.92-3.68-7.4-8.83-7.4-15.48 0-8.42 4.21-15.39 12.6-20.89 7.13-4.44 16.04-6.65 26.63-6.65l9.02 0.47c-0.35-5.34-2.48-9.65-6.42-12.9-3.9-3.29-8.54-4.91-13.9-4.91-4.34 0-8.75 1.35-13.28 4.08-3.39 1.86-5.47 2.81-6.34 2.81-2.84 0-4.25-1.23-4.25-3.76 0-2.38 1.96-4.47 5.86-6.22 5.44-2.69 11.43-4.03 18.01-4.03 8.7 0 16.03 2.37 22.02 7.12 6.3 4.83 9.45 12.11 9.45 21.85v23.79zm-17.57-21.65c-4.72 0-9.37 0.67-13.9 1.98-4.57 1.3-8.39 3.48-11.47 6.49-3.07 3-4.6 6.92-4.6 11.71 0 4.08 1.25 7.17 3.78 9.3 3.35 2.85 6.89 4.28 10.63 4.28 6.62 0 12.06-1.9 16.31-5.74 3.78-3.21 5.67-8.43 5.67-15.68v-12.11l-6.42-0.23zm140.68 29.01c0 1.46 0.95 2.53 2.84 3.32l1.41 0.91c1.89 0.91 2.84 1.94 2.84 3.13 0 1.5-0.27 2.41-0.83 2.77-0.55 0.36-1.61 0.55-3.19 0.55h-15.83c-1.93 0-3.27-0.19-4.06-0.55s-1.18-1.27-1.18-2.77c0-1.27 0.86-2.3 2.64-3.13 0.55-0.19 1.18-0.39 1.93-0.67 0.74-0.28 1.38-0.67 1.81-1.19 0.47-0.51 0.71-1.3 0.71-2.37v-32.06c0-6.02-0.63-10.29-1.85-12.83-2.25-4.59-6.35-6.88-12.26-6.88-4.84 0-9.41 1.42-13.7 4.23-4.3 2.81-6.42 6.69-6.42 11.64v35.9c0 0.91 0.15 1.58 0.51 2.06 0.35 0.51 0.82 0.87 1.45 1.18 0.59 0.28 1.38 0.64 2.29 0.99 1.89 0.87 2.84 1.9 2.84 3.13 0 1.5-0.24 2.41-0.79 2.77-0.51 0.36-1.66 0.55-3.43 0.55h-15.88c-1.85 0-3.15-0.19-3.86-0.55-0.74-0.36-1.1-1.27-1.1-2.77 0-1.03 0.79-2.06 2.36-3.13 0.63-0.19 1.3-0.47 2.01-0.71 0.75-0.24 1.38-0.63 1.93-1.15 0.52-0.51 0.79-1.3 0.79-2.37v-30.68c0-6.49-0.98-11.63-2.95-15.39-1.93-3.8-5.87-5.7-11.7-5.7-4.57 0-8.98 1.42-13.24 4.27-4.25 2.81-6.38 6.69-6.38 11.6v35.9c0 1.03 0.27 1.78 0.79 2.33 0.51 0.56 1.14 0.95 1.93 1.23 0.75 0.28 1.42 0.48 2.01 0.67 1.89 0.6 2.83 1.63 2.83 3.13 0 2.22-1.57 3.32-4.73 3.32h-15.12c-3.63 0-5.44-1.1-5.44-3.32 0-1.39 0.79-2.34 2.37-2.81 0.39-0.2 0.82-0.4 1.37-0.63 0.56-0.2 1.07-0.48 1.54-0.83 0.47-0.36 0.87-0.76 1.14-1.23 0.28-0.52 0.44-1.11 0.44-1.86v-36.1c0-6.96-1.58-11-4.73-12.15-2.4-0.75-3.59-1.62-3.59-2.61 0-0.55 0.24-1.15 0.75-1.74 0.52-0.6 1.15-1.23 1.97-1.9 0.83-0.63 1.34-1.11 1.58-1.35 0.39-0.28 1.1-0.87 2.09-1.66 0.98-0.83 1.93-1.47 2.79-1.9 0.91-0.48 1.7-0.71 2.45-0.71 2.71 0 4.68 4.35 5.87 13.1 6.18-8.75 14.06-13.1 23.67-13.1 9.02 0 16.11 4.35 21.31 13.1 2.68-3.92 6.23-7.05 10.6-9.46 4.33-2.42 8.82-3.64 13.43-3.64 7.45 0 13.28 2.61 17.53 7.87 3.63 4.2 5.44 11.01 5.44 20.43v31.82z" />

</svg>